HIERARCHY
ROOT Hips
{
	OFFSET 0.000000 0.000000 0.000000
	CHANNELS 6 Xposition Yposition Zposition Zrotation Yrotation Xrotation 
	JOINT LHipJoint
	{
		OFFSET 0.000000 0.000000 0.000000
		CHANNELS 3 Zrotation Yrotation Xrotation
		JOINT LeftUpLeg
		{
			OFFSET 1.363060 -1.794630 0.839290
			CHANNELS 3 Zrotation Yrotation Xrotation
			JOINT LeftLeg
			{
				OFFSET 2.448110 -6.726130 0.000000
				CHANNELS 3 Zrotation Yrotation Xrotation
				JOINT LeftFoot
				{
					OFFSET 2.562200 -7.039590 0.000000
					CHANNELS 3 Zrotation Yrotation Xrotation
					JOINT LeftToeBase
					{
						OFFSET 0.157640 -0.433110 2.322550
						CHANNELS 3 Zrotation Yrotation Xrotation
						End Site
						{
							OFFSET 0.000000 0.000000 0.000000
						}
					}
				}
			}
		}
	}
	JOINT RHipJoint
	{
		OFFSET 0.000000 0.000000 0.000000
		CHANNELS 3 Zrotation Yrotation Xrotation
		JOINT RightUpLeg
		{
			OFFSET -1.305520 -1.794630 0.839290
			CHANNELS 3 Zrotation Yrotation Xrotation
			JOINT RightLeg
			{
				OFFSET -2.542530 -6.985550 0.000000
				CHANNELS 3 Zrotation Yrotation Xrotation
				JOINT RightFoot
				{
					OFFSET -2.568260 -7.056230 0.000000
					CHANNELS 3 Zrotation Yrotation Xrotation
					JOINT RightToeBase
					{
						OFFSET -0.164730 -0.452590 2.363150
						CHANNELS 3 Zrotation Yrotation Xrotation
						End Site
						{
							OFFSET 0.000000 0.000000 0.000000
						}
					}
				}
			}
		}
	}
	JOINT LowerBack
	{
		OFFSET 0.000000 0.000000 0.000000
		CHANNELS 3 Zrotation Yrotation Xrotation
		JOINT Spine
		{
			OFFSET 0.028270 2.035590 -0.193380
			CHANNELS 3 Zrotation Yrotation Xrotation
			JOINT Spine1
			{
				OFFSET 0.056720 2.048850 -0.042750
				CHANNELS 3 Zrotation Yrotation Xrotation
				JOINT Neck
				{
					OFFSET 0.000000 0.000000 0.000000
					CHANNELS 3 Zrotation Yrotation Xrotation
					JOINT Neck1
					{
						OFFSET -0.054170 1.746240 0.172020
						CHANNELS 3 Zrotation Yrotation Xrotation
						JOINT Head
						{
							OFFSET 0.104070 1.761360 -0.123970
							CHANNELS 3 Zrotation Yrotation Xrotation
							End Site
							{
								OFFSET 0.000000 0.000000 0.000000
							}
						}
					}
				}
				JOINT LeftShoulder
				{
					OFFSET 0.000000 0.000000 0.000000
					CHANNELS 3 Zrotation Yrotation Xrotation
					JOINT LeftArm
					{
						OFFSET 3.362410 1.200890 -0.311210
						CHANNELS 3 Zrotation Yrotation Xrotation
						JOINT LeftForeArm
						{
							OFFSET 4.983000 -0.000000 -0.000000
							CHANNELS 3 Zrotation Yrotation Xrotation
							JOINT LeftHand
							{
								OFFSET 3.483560 -0.000000 -0.000000
								CHANNELS 3 Zrotation Yrotation Xrotation
								JOINT LeftFingerBase
								{
									OFFSET 0.000000 0.000000 0.000000
									CHANNELS 3 Zrotation Yrotation Xrotation
									JOINT LeftHandIndex1
									{
										OFFSET 0.715260 -0.000000 -0.000000
										CHANNELS 3 Zrotation Yrotation Xrotation
										End Site
										{
											OFFSET 0.000000 0.000000 0.000000
										}
									}
								}
								JOINT LThumb
								{
									OFFSET 0.000000 0.000000 0.000000
									CHANNELS 3 Zrotation Yrotation Xrotation
									End Site
									{
										OFFSET 0.000000 0.000000 0.000000
									}
								}
							}
						}
					}
				}
				JOINT RightShoulder
				{
					OFFSET 0.000000 0.000000 0.000000
					CHANNELS 3 Zrotation Yrotation Xrotation
					JOINT RightArm
					{
						OFFSET -3.136600 1.374050 -0.404650
						CHANNELS 3 Zrotation Yrotation Xrotation
						JOINT RightForeArm
						{
							OFFSET -5.241900 -0.000000 -0.000000
							CHANNELS 3 Zrotation Yrotation Xrotation
							JOINT RightHand
							{
								OFFSET -3.444170 -0.000000 -0.000000
								CHANNELS 3 Zrotation Yrotation Xrotation
								JOINT RightFingerBase
								{
									OFFSET 0.000000 0.000000 0.000000
									CHANNELS 3 Zrotation Yrotation Xrotation
									JOINT RightHandIndex1
									{
										OFFSET -0.622530 -0.000000 -0.000000
										CHANNELS 3 Zrotation Yrotation Xrotation
										End Site
										{
											OFFSET 0.000000 0.000000 0.000000
										}
									}
								}
								JOINT RThumb
								{
									OFFSET 0.000000 0.000000 0.000000
									CHANNELS 3 Zrotation Yrotation Xrotation
									End Site
									{
										OFFSET 0.000000 0.000000 0.000000
									}
								}
							}
						}
					}
				}
			}
		}
	}
}
MOTION
Frames: 10
Frame Time: 0.008333
0.723491 17.802639 -9.389748 5.727581 4.809598 2.829666 -0.678038 2.105704 2.509834 -27.037766 -1.632435 0.086452 0.061473 6.246586 20.780664 1.085934 -2.417205 -0.202709 0.057500 1.546800 4.254800 -0.781000 -1.791152 0.289918 10.711017 12.222045 -24.503163 0.549395 -4.370437 11.233030 2.899613 -14.633249 8.214145 -0.214500 2.981700 -8.227700 -5.783007 -1.346940 2.563962 0.547835 -2.206817 -1.805070 5.251770 -1.002140 -1.144489 -8.122973 -2.350352 -11.602321 2.918409 -1.996580 15.590100 2.682900 -1.608700 10.321700 -7.569281 2.549789 -2.299009 -80.576054 -9.021259 28.142669 13.420871 -24.369096 -3.964842 -1.179464 -3.239489 6.464199 15.513482 20.559132 6.792000 -7.125000 0.000000 0.000000 -13.661500 54.285100 -3.162100 6.346189 -2.410568 -2.214012 84.227100 -5.623097 0.445741 -10.348916 16.035768 -1.962675 1.107384 -0.918416 15.462991 -14.577835 10.371186 -3.085800 7.125000 0.000000 0.000000 7.887300 -18.699100 4.989700 
0.709300 17.791534 -9.248566 5.797380 4.947141 2.849236 -0.656980 2.137653 2.535063 -27.011539 -1.770922 0.731673 0.033032 6.154003 20.552361 1.066933 -2.354478 -0.230412 0.043000 1.338500 3.680700 -0.803147 -1.789426 0.291368 10.957022 11.818103 -24.741282 0.499278 -4.610595 11.900096 2.723811 -14.055152 8.427419 -0.496500 4.517600 -12.537600 -5.821791 -1.388647 2.489629 0.530716 -2.256518 -1.803775 5.218476 -1.032139 -1.115500 -8.104984 -2.324024 -11.606579 2.936577 -1.967506 15.590469 2.693500 -1.591700 10.320900 -7.546914 2.570219 -2.319176 -80.459195 -8.804918 28.586300 13.624803 -24.710244 -4.116091 -1.284527 -3.023154 6.103569 16.457155 18.355261 6.577000 -7.125000 0.000000 0.000000 -11.534900 52.073300 -2.031000 6.324595 -2.439932 -2.223875 84.276281 -5.885858 0.710517 -10.360831 16.075945 -1.971512 1.112067 -0.943969 15.381348 -14.635949 10.628580 -3.178500 7.125000 0.000000 0.000000 7.836700 -18.406000 5.008500 
0.693465 17.780120 -9.118490 5.886969 4.917906 2.773959 -0.642167 2.180940 2.574738 -27.005648 -1.719765 1.560980 -0.027703 5.969084 20.073545 1.018687 -2.188627 -0.204390 0.026000 1.041700 2.863700 -0.830406 -1.784679 0.279013 11.202661 11.552157 -25.076563 0.398265 -5.028251 13.013221 2.401576 -13.395050 10.088385 -0.485000 4.465700 -12.390700 -5.927981 -1.359742 2.658256 0.529509 -2.224489 -1.782813 5.277985 -1.026463 -1.122446 -8.167570 -2.318964 -11.867069 2.943672 -1.921443 15.574445 2.708500 -1.573100 10.386500 -7.522117 2.563818 -2.328598 -80.538443 -8.746309 28.645754 13.810612 -24.977170 -4.223284 -1.259452 -3.036496 6.243597 16.282227 18.550222 6.553600 -7.125000 0.000000 0.000000 -11.823300 52.247000 -2.133700 6.308592 -2.443661 -2.241609 84.209962 -6.029515 1.329051 -10.454707 16.226581 -2.012394 1.113617 -0.903508 14.982235 -14.545307 10.458973 -3.101400 7.125000 0.000000 0.000000 7.911400 -18.617000 5.019800 
0.673619 17.783411 -8.985946 5.838034 4.800999 2.627076 -0.631886 2.238931 2.632153 -26.851929 -1.623013 2.498305 -0.102031 5.744187 19.486139 0.919681 -1.843129 -0.003058 0.010400 0.659700 1.813000 -0.844668 -1.785694 0.266126 11.482122 11.563088 -25.312444 0.279956 -5.476561 14.199379 1.935665 -12.722400 13.057551 -0.097900 2.018100 -5.555600 -5.925469 -1.279159 2.933219 0.528446 -2.129453 -1.791531 5.287352 -0.977402 -1.320327 -8.140893 -2.366466 -11.836240 2.926609 -1.992305 15.534592 2.684100 -1.603500 10.383100 -7.506763 2.553610 -2.337006 -80.535782 -8.598522 28.898553 13.942718 -25.129728 -4.227483 -0.979509 -3.550048 6.301366 14.294893 23.715410 6.989800 -7.125000 0.000000 0.000000 -16.994600 57.359900 -5.246400 6.296436 -2.443160 -2.257562 84.221052 -6.261171 1.678416 -10.535943 16.345906 -2.047242 1.106535 -0.814412 14.865985 -14.353769 9.814597 -2.857600 7.125000 0.000000 0.000000 8.077200 -19.372000 4.990200 
0.655419 17.781354 -8.850832 5.882414 4.676472 2.466237 -0.616136 2.292497 2.681121 -26.897876 -1.714881 3.562975 -0.164236 5.542699 18.958098 0.730891 -1.148119 0.073823 0.003500 -0.382600 -1.051300 -0.838050 -1.783412 0.251048 11.683018 11.300367 -25.551944 0.185701 -5.838420 15.129454 1.309194 -12.034714 17.006860 -0.082500 -1.852900 5.099400 -5.966414 -1.174101 3.164531 0.497387 -1.998159 -1.785749 5.238956 -0.912429 -1.471870 -8.128277 -2.455594 -11.690209 2.953323 -2.132516 15.414442 2.682000 -1.659700 10.311000 -7.520865 2.544162 -2.335616 -80.466746 -8.585658 29.216357 13.888791 -25.102340 -4.311408 -1.418805 -2.668346 6.152462 17.379906 14.965855 5.849300 -7.125000 0.000000 0.000000 -9.217000 48.460700 -0.793100 6.304755 -2.439374 -2.244344 84.269399 -6.260045 1.294883 -10.414911 16.148318 -1.996079 1.099196 -0.859463 15.612641 -14.446467 9.928405 -2.916800 7.125000 0.000000 0.000000 8.001400 -19.220300 4.969800 
0.640818 17.779503 -8.715100 5.780987 4.561340 2.356362 -0.612895 2.337750 2.722411 -26.809869 -1.906684 4.476020 -0.203147 5.411320 18.615601 0.572661 -0.569487 0.164121 0.080900 -1.834600 -5.048800 -0.827943 -1.779394 0.234251 12.054060 11.017385 -25.741929 0.129612 -6.085161 15.766836 0.625591 -11.354803 20.894725 -0.802300 -5.716800 15.965000 -5.848861 -1.142437 3.241699 0.532012 -1.947908 -1.757793 5.295247 -0.899253 -1.420150 -8.235722 -2.477458 -11.777738 2.987577 -2.129119 15.324390 2.717400 -1.659600 10.290200 -7.530790 2.536184 -2.330745 -80.579779 -8.636795 29.349751 13.922631 -25.091860 -4.232486 -0.835560 -3.550920 6.345791 13.034151 23.736264 6.311800 -7.125000 0.000000 0.000000 -18.449000 57.072400 -5.586300 6.344984 -2.433630 -2.216665 84.041326 -6.019944 0.778800 -10.139254 15.733444 -1.888219 1.075633 -1.053920 16.725958 -14.684613 11.116885 -3.351200 7.125000 0.000000 0.000000 7.792000 -17.815100 5.081800 
0.628067 17.799554 -8.577826 5.492463 4.618366 2.188373 -0.590088 2.385628 2.759036 -26.491979 -2.087406 5.204952 -0.217108 5.351984 18.476075 0.508580 -0.343866 0.273822 0.178200 -2.719100 -7.497500 -0.874157 -1.789622 0.253783 12.522403 11.192179 -25.669196 0.085290 -6.278494 16.447274 0.391828 -10.138781 20.695973 -0.608600 -4.993400 13.889800 -5.499077 -1.159470 3.355413 0.579808 -1.963175 -1.769230 5.261021 -0.902600 -1.549922 -8.260766 -2.437317 -11.545444 2.949734 -2.080003 15.300156 2.711700 -1.645100 10.218300 -7.539680 2.546628 -2.331529 -80.730144 -8.434540 29.157801 13.847724 -25.010198 -4.245958 -1.329041 -2.942640 6.560576 16.718806 17.721774 6.486000 -7.125000 0.000000 0.000000 -10.984600 51.416800 -1.754000 6.374453 -2.448063 -2.203585 83.855045 -6.059281 0.349173 -9.906160 15.396253 -1.803724 1.035502 -1.197803 17.574358 -14.688739 12.027635 -3.645700 7.125000 0.000000 0.000000 7.778000 -16.749300 5.255600 
0.610484 17.826804 -8.444151 5.178535 4.793101 2.024889 -0.570338 2.430685 2.793751 -26.135128 -2.514516 5.740758 -0.189082 5.420593 18.685984 0.507216 -0.360035 0.488960 0.218800 -3.011400 -8.310600 -0.895123 -1.827168 0.269667 12.994648 11.483769 -25.327664 -0.000762 -6.459551 16.982068 0.591627 -10.606531 20.038681 -0.149500 -2.491500 6.866100 -5.148081 -1.223428 3.616730 0.622251 -2.051347 -1.815787 5.184915 -0.928268 -1.856158 -8.165295 -2.327202 -11.252892 2.913484 -1.970315 15.314453 2.688300 -1.594900 10.155200 -7.544971 2.556224 -2.337816 -80.804106 -8.054792 28.945159 13.787758 -24.919563 -4.209959 -1.333250 -2.940917 6.759656 16.670640 17.742852 6.471900 -7.125000 0.000000 0.000000 -11.046800 51.431300 -1.768000 6.380838 -2.457189 -2.216693 83.790690 -6.317926 0.714233 -9.863206 15.330798 -1.787440 1.044777 -1.216742 17.655052 -14.800230 12.122098 -3.706100 7.125000 0.000000 0.000000 7.690500 -16.630000 5.215500 
0.590535 17.845621 -8.310579 4.719290 4.906532 1.865171 -0.559340 2.466399 2.818564 -25.637511 -2.969061 6.102947 -0.119108 5.599059 19.202980 0.531034 -0.479157 0.900387 0.235800 -3.125000 -8.627000 -0.911551 -1.865501 0.279778 13.754682 11.608171 -24.932059 -0.084523 -6.625841 17.474930 0.690056 -11.107360 20.181976 -0.000400 0.131200 -0.360600 -4.733681 -1.284789 3.829744 0.718708 -2.124474 -1.818120 5.258311 -0.959018 -1.949661 -8.215822 -2.249784 -11.354956 2.895038 -1.836263 15.375857 2.697400 -1.543200 10.208700 -7.529982 2.557021 -2.345369 -81.035274 -7.736278 28.633498 13.824410 -24.950096 -4.189130 -1.250130 -3.199120 6.967390 16.097843 20.318137 6.993800 -7.125000 0.000000 0.000000 -12.903300 54.141900 -2.936600 6.405621 -2.449160 -2.223468 83.585267 -6.204547 1.292997 -9.871291 15.321734 -1.789976 1.047108 -1.134524 17.601391 -14.657053 11.447697 -3.457300 7.125000 0.000000 0.000000 7.804800 -17.411000 5.160100 
0.571615 17.855492 -8.170323 4.192913 5.022934 1.654136 -0.534991 2.502426 2.829171 -25.154570 -3.533405 6.540709 -0.016997 5.846695 19.903307 0.435411 -0.126206 1.114360 0.291100 -3.469700 -9.589400 -0.946916 -1.906214 0.284518 14.561261 11.867196 -24.446736 -0.195510 -6.841400 18.130599 0.889226 -11.658124 19.679622 -0.000000 0.038000 -0.104300 -4.239343 -1.352187 3.900330 0.826440 -2.186557 -1.747970 5.322217 -1.002402 -1.743927 -8.351444 -2.261479 -11.601777 2.891854 -1.793125 15.380570 2.723300 -1.534300 10.260700 -7.516469 2.562543 -2.334336 -81.380389 -7.622756 28.282227 13.828633 -24.941175 -4.165549 -1.401664 -3.179096 6.963125 17.406108 20.119631 7.569200 -7.125000 0.000000 0.000000 -11.333400 54.214700 -2.591900 6.436072 -2.439722 -2.213243 83.349497 -5.798771 1.979474 -9.920996 15.367772 -1.810248 1.031501 -0.933933 17.209266 -14.090305 9.950247 -2.863700 7.125000 0.000000 0.000000 8.271700 -19.161600 5.152100 
